<svg width="1080" height="469" viewBox="0 0 1080 469" fill="none" xmlns="http://www.w3.org/2000/svg">
<path d="M25.05 350C23.8833 350 22.95 349.65 22.25 348.95C21.55 348.017 21.3167 346.967 21.55 345.8L50.6 109.2C50.6 108.033 51.0667 107.1 52 106.4C52.9333 105.467 53.9833 105 55.15 105H94.7C95.8667 105 96.8 105.467 97.5 106.4C98.2 107.1 98.4333 108.033 98.2 109.2L83.85 227.15C83.6167 227.85 83.7333 228.317 84.2 228.55C84.6667 228.55 85.1333 228.317 85.6 227.85L138.8 172.55C140.433 170.917 142.183 170.1 144.05 170.1H189.2C191.3 170.1 192.35 170.8 192.35 172.2C192.35 173.367 191.883 174.417 190.95 175.35L140.9 231.7C140.433 232.633 140.2 233.45 140.2 234.15L177.3 345.1C177.533 345.567 177.65 346.15 177.65 346.85C177.65 348.95 176.367 350 173.8 350H131.8C129.7 350 128.3 348.95 127.6 346.85L103.8 264.95C103.8 264.483 103.45 264.25 102.75 264.25C102.283 264.017 101.933 264.133 101.7 264.6L76.5 292.6C76.2667 292.833 76.0333 293.183 75.8 293.65C75.5667 293.883 75.45 294.233 75.45 294.7L69.15 345.8C68.9167 346.967 68.3333 348.017 67.4 348.95C66.7 349.65 65.7667 350 64.6 350H25.05ZM192.211 419.65C190.811 419.65 190.111 418.25 190.111 415.45L194.311 383.25C194.544 382.083 195.011 381.033 195.711 380.1C196.644 379.4 197.694 379.05 198.861 379.05C212.861 378.817 223.127 376.833 229.661 373.1C236.427 369.6 241.794 362.25 245.761 351.05C245.994 350.583 246.111 349.883 246.111 348.95L211.811 174.65V173.25C211.811 170.917 213.094 169.75 215.661 169.75H258.011C260.811 169.75 262.327 170.917 262.561 173.25L276.911 286.65C277.144 287.35 277.494 287.7 277.961 287.7C278.427 287.7 278.777 287.35 279.011 286.65L321.361 173.25C322.294 170.917 324.044 169.75 326.611 169.75H368.261C369.661 169.75 370.594 170.217 371.061 171.15C371.527 172.083 371.411 173.25 370.711 174.65L289.511 356.65C281.811 373.683 274.461 386.4 267.461 394.8C260.461 403.433 251.361 409.733 240.161 413.7C229.194 417.667 213.911 419.65 194.311 419.65H192.211ZM482.101 167.65C490.267 167.65 496.567 169.283 501.001 172.55C502.867 173.483 503.334 175.233 502.401 177.8L490.501 217.7C489.801 220.5 488.051 221.317 485.251 220.15C482.217 218.983 478.251 218.4 473.351 218.4C471.717 218.4 469.267 218.633 466.001 219.1C457.834 219.8 450.484 222.95 443.951 228.55C437.651 234.15 434.034 241.383 433.101 250.25L421.201 345.8C420.967 346.967 420.384 348.017 419.451 348.95C418.751 349.65 417.817 350 416.651 350H377.101C375.934 350 375.001 349.65 374.301 348.95C373.601 348.017 373.367 346.967 373.601 345.8L394.601 174.3C394.834 173.133 395.301 172.2 396.001 171.5C396.934 170.567 397.984 170.1 399.151 170.1H438.701C439.867 170.1 440.801 170.567 441.501 171.5C442.201 172.2 442.434 173.133 442.201 174.3L440.801 187.6C440.567 188.3 440.684 188.767 441.151 189C441.617 189.233 442.084 189.117 442.551 188.65C453.051 174.65 466.234 167.65 482.101 167.65ZM666.332 241.5C666.565 248.733 665.865 258.65 664.232 271.25C663.532 274.05 661.899 275.45 659.332 275.45H554.332C553.165 275.45 552.582 276.033 552.582 277.2C552.815 282.333 553.515 287 554.682 291.2C559.349 304.267 570.549 310.8 588.282 310.8C602.515 310.567 614.765 304.5 625.032 292.6C626.899 290.033 628.649 289.8 630.282 291.9L651.982 316.75C652.682 317.683 653.032 318.617 653.032 319.55C653.032 320.717 652.565 321.767 651.632 322.7C642.999 332.267 632.382 339.733 619.782 345.1C607.415 350.233 594.232 352.8 580.232 352.8C560.865 352.8 544.999 348.25 532.632 339.15C520.265 330.05 512.099 317.333 508.132 301C506.265 294.467 505.332 286.183 505.332 276.15C505.332 270.55 505.682 264.6 506.382 258.3C507.315 245.233 510.465 232.867 515.832 221.2C523.065 204.633 533.799 191.45 548.032 181.65C562.499 171.85 578.599 166.95 596.332 166.95C618.965 166.95 636.232 173.717 648.132 187.25C660.032 200.783 666.099 218.867 666.332 241.5ZM591.432 209.65C576.965 209.65 566.699 216.533 560.632 230.3C558.765 234.967 557.482 238.7 556.782 241.5C556.782 242.667 557.249 243.25 558.182 243.25H616.982C618.149 243.25 618.732 242.667 618.732 241.5C618.732 238.7 618.499 235.433 618.032 231.7C616.865 224.7 613.949 219.333 609.282 215.6C604.849 211.633 598.899 209.65 591.432 209.65ZM814.128 174.3C814.361 173.133 814.828 172.2 815.528 171.5C816.461 170.567 817.511 170.1 818.678 170.1H858.578C859.744 170.1 860.678 170.567 861.378 171.5C862.078 172.2 862.311 173.133 862.078 174.3L841.078 345.8C840.844 346.967 840.261 348.017 839.328 348.95C838.628 349.65 837.694 350 836.528 350H796.628C795.461 350 794.528 349.65 793.828 348.95C793.128 348.017 792.894 346.967 793.128 345.8L794.878 330.75C795.111 329.817 794.994 329.35 794.528 329.35C794.061 329.117 793.594 329.35 793.128 330.05C781.928 345.217 766.761 352.8 747.628 352.8C732.694 352.8 719.978 348.133 709.478 338.8C698.978 329.233 692.561 316.4 690.228 300.3C689.528 295.4 689.178 290.383 689.178 285.25C689.178 278.25 689.761 269.733 690.928 259.7C693.261 241.5 696.994 226.567 702.128 214.9C708.428 200.9 717.761 189.467 730.128 180.6C742.728 171.733 756.844 167.3 772.478 167.3C791.144 167.3 803.861 174.067 810.628 187.6C811.094 188.3 811.444 188.65 811.678 188.65C812.144 188.65 812.494 188.183 812.728 187.25L814.128 174.3ZM795.928 289.8C797.794 286.3 799.311 282.45 800.478 278.25C801.644 274.05 802.694 268.1 803.628 260.4C804.561 254.1 805.028 248.617 805.028 243.95C805.028 239.983 804.328 235.2 802.928 229.6C801.761 223.533 799.078 218.75 794.878 215.25C790.678 211.517 785.311 209.65 778.778 209.65C772.011 209.65 765.944 211.517 760.578 215.25C755.444 218.983 751.478 223.883 748.678 229.95C744.944 236.95 742.378 246.983 740.978 260.05C740.044 266.583 739.578 272.3 739.578 277.2C739.578 281.633 740.161 285.833 741.328 289.8C742.494 296.1 745.294 301.117 749.728 304.85C754.161 308.583 759.761 310.45 766.528 310.45C773.294 310.45 779.128 308.583 784.028 304.85C789.161 301.117 793.128 296.1 795.928 289.8ZM1013.58 109.2C1013.82 108.033 1014.28 107.1 1014.98 106.4C1015.92 105.467 1016.97 105 1018.13 105H1058.03C1059.2 105 1060.13 105.467 1060.83 106.4C1061.53 107.1 1061.77 108.033 1061.53 109.2L1032.48 345.8C1032.25 346.967 1031.67 348.017 1030.73 348.95C1030.03 349.65 1029.1 350 1027.93 350H988.034C986.867 350 985.934 349.65 985.234 348.95C984.534 348.017 984.301 346.967 984.534 345.8L985.934 334.25C985.934 332.617 985.234 332.383 983.834 333.55C972.867 346.383 959.101 352.8 942.534 352.8C926.667 352.8 913.601 348.25 903.334 339.15C893.067 330.05 886.417 317.567 883.384 301.7C881.984 294.7 881.284 287.35 881.284 279.65C881.284 275.45 881.751 268.683 882.684 259.35C885.017 242.55 888.867 228.083 894.234 215.95C901.234 201.017 910.917 189.233 923.284 180.6C935.651 171.733 950.001 167.3 966.334 167.3C982.434 167.3 994.451 173.133 1002.38 184.8C1002.62 185.5 1002.97 185.733 1003.43 185.5C1003.9 185.267 1004.25 184.8 1004.48 184.1L1013.58 109.2ZM983.484 295.4C989.084 287 992.817 275.217 994.684 260.05C995.384 254.683 995.734 249.783 995.734 245.35C995.734 236.95 994.451 229.6 991.884 223.3C987.451 214.2 980.334 209.65 970.534 209.65C959.801 209.65 951.284 214.2 944.984 223.3C938.217 232.167 933.784 244.533 931.684 260.4C931.217 265.533 930.984 269.383 930.984 271.95C930.984 281.05 932.267 288.867 934.834 295.4C939.267 305.433 946.967 310.45 957.934 310.45C967.967 310.45 976.484 305.433 983.484 295.4Z" fill="#43AAFF"/>
</svg>
