<svg width="1080" height="1080" viewBox="0 0 1080 1080" fill="none" xmlns="http://www.w3.org/2000/svg">
<g clip-path="url(#clip0_2_2)">
<path d="M486.469 216.51L540.402 297.776L594.336 216.51L540.402 135L486.469 216.51Z" fill="#43AAFF"/>
<path d="M610.445 555.485H369.575L486.471 379.286L432.538 297.776L261.708 555.485L202.162 645.292L63.7903 854.193L4 944H112.111L171.657 854.193L310.029 645.292H629.236L640.95 652.126L858.635 777.807L909.152 854.193L968.698 944H1076.81L1017.02 854.193L921.842 710.452L809.095 645.292L747.108 609.662L706.841 586.478L721.728 571.348L737.59 555.485L786.643 506.432L735.882 430.047L648.271 297.776L594.338 379.286L670.967 494.962L610.445 555.485Z" fill="#43AAFF"/>
</g>
<defs>
<clipPath id="clip0_2_2">
<rect width="1080" height="1080" fill="white"/>
</clipPath>
</defs>
</svg>
